<?xml version="1.0" standalone="no"?>
<!DOCTYPE svg PUBLIC "-//W3C//DTD SVG 20010904//EN"
 "http://www.w3.org/TR/2001/REC-SVG-20010904/DTD/svg10.dtd">
<svg version="1.0" xmlns="http://www.w3.org/2000/svg"
 width="1280.000000pt" height="1045.000000pt" viewBox="0 0 1280.000000 1045.000000"
 preserveAspectRatio="xMidYMid meet">
<metadata>
Created by potrace 1.15, written by Peter Selinger 2001-2017
</metadata>
<g transform="translate(0.000000,1045.000000) scale(0.100000,-0.100000)"
fill="#000000" stroke="none">
<path d="M6938 10440 c18 -4 35 -9 37 -11 2 -2 -126 -4 -283 -4 -310 0 -357
-5 -612 -65 -69 -16 -134 -29 -145 -29 -28 1 -221 -68 -253 -90 -39 -27 -273
-157 -450 -250 -182 -95 -196 -105 -291 -195 -41 -39 -71 -64 -66 -56 4 8 -15
-7 -42 -33 -53 -51 -124 -162 -175 -274 -64 -140 -186 -456 -182 -468 10 -24
-18 -180 -48 -273 -33 -104 -48 -118 -23 -22 9 34 14 64 12 66 -2 2 -17 -27
-33 -64 -16 -37 -43 -94 -60 -127 -43 -83 -93 -350 -76 -399 20 -54 14 -106
-29 -231 -56 -166 -59 -214 -21 -345 57 -195 162 -636 162 -677 0 -14 -2 -15
-9 -4 -7 11 -10 10 -18 -4 -8 -13 -11 -3 -16 41 -7 72 -110 531 -115 516 -2
-7 19 -110 47 -231 28 -120 51 -238 51 -262 0 -55 20 -171 32 -185 5 -7 26
-69 48 -138 66 -211 122 -338 170 -381 11 -10 20 -22 20 -27 0 -4 27 -40 60
-80 33 -39 89 -121 124 -182 141 -246 158 -296 154 -456 -1 -56 3 -104 9 -116
14 -25 131 -80 189 -90 36 -5 44 -3 73 27 l32 32 -5 -34 c-3 -19 -10 -72 -16
-118 -10 -85 -19 -114 -21 -70 -3 38 -17 -80 -19 -151 -1 -59 -4 -67 -31 -88
-41 -33 -57 -23 -24 16 15 18 22 32 17 32 -11 0 -79 -74 -115 -125 l-22 -30
33 23 32 23 0 -24 c0 -28 -105 -193 -128 -202 -29 -11 -34 12 -13 56 l22 44
-28 -35 c-15 -19 -57 -68 -92 -108 -57 -66 -61 -72 -32 -57 25 12 32 13 29 3
-6 -18 -119 -95 -258 -176 -63 -37 -126 -79 -139 -95 -43 -51 -173 -101 -145
-55 5 7 2 9 -7 5 -159 -71 -248 -101 -297 -99 -45 1 -421 -70 -445 -85 -4 -2
-42 -13 -85 -23 -42 -10 -158 -44 -257 -75 -158 -49 -255 -76 -360 -100 -24
-5 -28 -4 -17 6 6 7 12 17 12 22 0 19 -142 -7 -295 -54 -88 -27 -222 -60 -297
-74 -75 -14 -172 -36 -215 -50 -42 -13 -79 -23 -81 -21 -7 8 156 69 271 101
67 19 145 41 172 49 l50 14 -50 -5 c-56 -5 -170 -22 -199 -30 -12 -3 -16 -1
-12 6 4 6 4 11 -1 11 -46 -1 -347 -93 -373 -115 -8 -6 -80 -42 -160 -79 -80
-37 -149 -72 -155 -78 -5 -5 26 7 70 27 286 131 461 203 449 184 -10 -17 -670
-329 -694 -329 -9 0 -5 9 10 25 23 24 21 24 -66 -10 -49 -19 -111 -48 -137
-65 -27 -17 -52 -28 -56 -25 -14 8 -59 -48 -85 -105 -14 -30 -43 -113 -65
-185 -22 -71 -70 -213 -106 -314 -36 -101 -63 -186 -61 -188 2 -3 7 5 11 16 6
21 74 85 82 78 2 -3 -11 -56 -29 -118 -22 -77 -42 -126 -64 -155 -18 -23 -37
-52 -44 -64 -6 -12 -34 -52 -61 -89 -27 -37 -62 -92 -79 -122 -34 -62 -40 -44
-10 33 22 59 25 77 11 62 -6 -5 -29 -56 -51 -113 -36 -90 -41 -111 -35 -150 7
-49 55 -177 85 -226 44 -75 34 -111 -64 -215 -34 -36 -69 -79 -78 -96 -30 -54
-87 -212 -112 -311 -19 -73 -37 -114 -79 -181 -78 -124 -104 -180 -132 -283
-37 -138 -58 -290 -59 -429 l-1 -125 165 -7 c118 -5 175 -3 200 5 26 9 210 12
695 12 363 0 1018 0 1455 0 2911 0 4326 0 7121 3 l3157 2 -64 140 c-104 229
-104 227 -104 468 0 202 17 367 41 414 15 28 -24 194 -96 406 -66 195 -168
554 -178 627 -3 22 -15 83 -26 135 -11 52 -38 228 -60 390 -23 162 -48 320
-57 350 -36 123 -129 273 -312 504 -107 136 -134 187 -158 296 -23 104 -26
110 -34 75 -5 -17 -8 36 -9 123 -1 145 -2 152 -21 152 -13 0 -20 7 -20 18 0
57 -33 353 -50 448 -30 171 -70 249 -122 242 -24 -4 -30 -1 -35 21 -9 35 13
109 45 151 31 41 55 61 133 111 31 21 79 63 105 96 94 112 256 345 284 406 64
142 117 365 106 447 -9 69 -59 161 -116 213 l-50 46 0 130 c0 125 -1 130 -26
161 -15 17 -60 56 -100 85 -40 30 -78 64 -85 76 -8 16 -10 57 -5 141 7 108 5
123 -14 162 -24 50 -76 83 -186 115 -89 26 -125 65 -169 184 l-18 48 30 37
c16 20 64 96 108 167 87 145 185 271 254 327 25 21 91 76 145 123 95 81 176
133 176 113 0 -6 23 9 51 33 53 44 107 115 96 125 -3 4 6 25 22 48 41 62 54
101 49 151 -7 58 -46 108 -108 140 -57 29 -72 32 -44 9 19 -15 19 -16 -1 -9
-128 42 -188 30 -405 -83 -345 -178 -463 -264 -728 -530 -106 -106 -190 -197
-187 -201 2 -5 -5 -17 -18 -27 l-22 -19 20 25 c10 14 -18 -11 -63 -55 -45 -44
-82 -82 -82 -84 0 -3 29 24 65 59 107 106 73 56 -44 -65 -59 -62 -126 -139
-149 -171 -22 -32 -59 -77 -83 -99 l-43 -40 38 50 38 50 -59 -60 c-32 -33 -71
-71 -88 -85 -27 -22 -27 -21 4 13 66 71 21 37 -121 -93 -100 -90 -148 -128
-160 -124 -12 3 -22 -4 -32 -24 -8 -16 -36 -46 -63 -68 -26 -21 -41 -30 -33
-19 14 19 14 19 -5 4 -85 -66 -255 -223 -255 -235 0 -9 5 -12 12 -8 7 4 -14
-26 -46 -67 -115 -146 -149 -255 -149 -474 -1 -155 23 -328 64 -471 38 -130
118 -325 95 -231 -4 19 -3 26 4 22 5 -3 10 -13 10 -20 0 -8 25 -89 56 -181 30
-92 54 -175 51 -185 -3 -9 2 -44 10 -76 8 -32 19 -94 24 -138 5 -44 11 -105
15 -135 l6 -55 -61 -43 c-100 -70 -148 -161 -138 -258 3 -27 15 -89 26 -139
22 -94 42 -300 28 -286 -4 4 -12 47 -17 94 -5 48 -13 94 -19 104 -8 14 -9 10
-6 -17 21 -155 25 -194 21 -198 -7 -6 -330 67 -363 82 -15 8 -68 22 -118 32
-73 15 -84 20 -60 24 24 5 16 9 -45 19 -41 7 -87 17 -102 23 -44 16 -222 216
-361 403 -40 55 -124 165 -185 245 -62 80 -112 151 -112 158 0 7 21 54 46 104
112 222 179 464 219 783 8 66 23 161 34 210 12 50 20 106 20 125 l-1 35 -13
-40 -13 -40 -1 45 c-2 92 20 335 31 341 8 5 12 105 13 326 1 201 6 335 13 363
22 85 92 545 98 640 3 52 15 133 26 179 19 78 20 108 16 400 -6 353 -6 358
-90 545 l-40 88 54 57 c118 122 160 199 162 296 1 96 -57 183 -209 313 -27 24
-43 40 -35 36 31 -15 141 -107 176 -147 44 -51 34 -29 -14 31 -35 44 -278 239
-336 269 -17 10 -65 31 -106 49 -41 17 -117 50 -168 73 -51 23 -141 55 -200
72 -59 16 -115 34 -124 39 -15 8 -193 57 -271 74 -15 4 -25 11 -22 16 3 6 4
10 2 10 -2 0 -29 5 -58 10 -30 6 -99 15 -153 21 -104 11 -232 35 -355 69 -41
11 -88 20 -105 19 l-31 -1 33 -8z m-2569 -1897 c-6 -16 -19 -59 -29 -98 -18
-67 -19 -68 -19 -28 -1 24 9 66 23 98 25 56 44 78 25 28z m7015 -965 c-4 -7
-18 -30 -31 -51 -13 -21 -22 -41 -20 -45 10 -15 -12 -52 -28 -46 -26 10 -17
40 31 98 42 52 65 73 48 44z m-6060 -2282 c9 -27 16 -52 16 -55 -2 -14 -49 86
-50 104 0 29 15 6 34 -49z m4529 -682 c-5 -14 -3 -15 15 -5 21 11 22 10 22
-32 0 -39 -13 -67 -30 -67 -23 0 -32 79 -13 113 8 13 12 7 6 -9z m-2800 -231
c-7 -2 -19 -2 -25 0 -7 3 -2 5 12 5 14 0 19 -2 13 -5z m-6023 -1077 c0 -2 -8
-10 -17 -17 -16 -13 -17 -12 -4 4 13 16 21 21 21 13z"/>
<path d="M8190 10163 c41 -19 84 -43 95 -53 11 -9 38 -23 60 -30 22 -7 67 -26
100 -42 85 -41 33 0 -65 51 -71 37 -247 112 -259 110 -3 0 28 -16 69 -36z"/>
<path d="M11892 8716 c-67 -22 -108 -44 -99 -53 2 -2 28 8 58 21 30 14 79 32
109 40 30 8 44 15 30 15 -14 0 -58 -11 -98 -23z"/>
<path d="M12071 8736 c2 -2 22 -6 44 -9 28 -5 34 -4 20 3 -19 8 -73 14 -64 6z"/>
<path d="M10639 7698 c-52 -57 -102 -116 -112 -133 l-18 -30 23 30 c13 16 52
61 88 100 113 123 124 135 119 135 -3 0 -48 -46 -100 -102z"/>
<path d="M8713 7070 c0 -30 2 -43 4 -27 2 15 2 39 0 55 -2 15 -4 2 -4 -28z"/>
<path d="M8681 6494 c0 -11 3 -14 6 -6 3 7 2 16 -1 19 -3 4 -6 -2 -5 -13z"/>
<path d="M3054 3935 c-70 -16 -139 -43 -111 -44 25 -1 190 40 202 50 12 12
-17 10 -91 -6z"/>
<path d="M566 20 c11 -4 90 -5 175 -1 l154 8 -175 1 c-105 0 -167 -3 -154 -8z"/>
<path d="M1710 20 c0 -5 12 -10 26 -10 14 0 23 4 19 10 -3 6 -15 10 -26 10
-10 0 -19 -4 -19 -10z"/>
<path d="M423 3 c9 -2 23 -2 30 0 6 3 -1 5 -18 5 -16 0 -22 -2 -12 -5z"/>
<path d="M1028 3 c23 -2 59 -2 80 0 20 2 1 4 -43 4 -44 0 -61 -2 -37 -4z"/>
</g>
</svg>
